<svg width="28" height="30" viewBox="0 0 28 30" fill="none" xmlns="http://www.w3.org/2000/svg">
<path d="M0.68 6.6C0.68 4.78667 1.22667 3.34667 2.32 2.28C3.41333 1.18666 4.81333 0.639998 6.52 0.639998C8.22667 0.639998 9.62667 1.18666 10.72 2.28C11.8133 3.34667 12.36 4.78667 12.36 6.6C12.36 8.44 11.8133 9.90667 10.72 11C9.62667 12.0667 8.22667 12.6 6.52 12.6C4.81333 12.6 3.41333 12.0667 2.32 11C1.22667 9.90667 0.68 8.44 0.68 6.6ZM24.04 1.08L7.84 29H4.24L20.44 1.08H24.04ZM6.52 2.88C5.61333 2.88 4.89333 3.2 4.36 3.84C3.85333 4.45333 3.6 5.37333 3.6 6.6C3.6 7.82667 3.85333 8.76 4.36 9.4C4.89333 10.04 5.61333 10.36 6.52 10.36C7.42667 10.36 8.14667 10.04 8.68 9.4C9.21333 8.73333 9.48 7.8 9.48 6.6C9.48 5.37333 9.21333 4.45333 8.68 3.84C8.14667 3.2 7.42667 2.88 6.52 2.88ZM16 23.48C16 21.64 16.5467 20.1867 17.64 19.12C18.7333 18.0267 20.1333 17.48 21.84 17.48C23.5467 17.48 24.9333 18.0267 26 19.12C27.0933 20.1867 27.64 21.64 27.64 23.48C27.64 25.2933 27.0933 26.7467 26 27.84C24.9333 28.9333 23.5467 29.48 21.84 29.48C20.1333 29.48 18.7333 28.9467 17.64 27.88C16.5467 26.7867 16 25.32 16 23.48ZM21.8 19.76C20.8933 19.76 20.1733 20.08 19.64 20.72C19.1067 21.3333 18.84 22.2533 18.84 23.48C18.84 24.68 19.1067 25.6 19.64 26.24C20.1733 26.8533 20.8933 27.16 21.8 27.16C22.7067 27.16 23.4267 26.8533 23.96 26.24C24.4933 25.6 24.76 24.68 24.76 23.48C24.76 22.2533 24.4933 21.3333 23.96 20.72C23.4267 20.08 22.7067 19.76 21.8 19.76Z" fill="#0A8B6A"/>
</svg>
