<svg width="46" height="16" viewBox="0 0 46 16" fill="none" xmlns="http://www.w3.org/2000/svg">
<path d="M0.7 15.2C2.43333 5.46666 7.13333 0.599998 14.8 0.599998C16.6 0.599998 18.2 0.933332 19.6 1.6C21.0667 2.2 22.7 3.1 24.5 4.3C26.1 5.3 27.4 6.03333 28.4 6.5C29.4667 6.96667 30.5667 7.2 31.7 7.2C33.4333 7.2 34.9 6.63333 36.1 5.5C37.3667 4.3 38.1333 2.7 38.4 0.699999H45.2C43.5333 10.4333 38.8 15.3 31 15.3C29.2667 15.3 27.7333 15 26.4 14.4C25.0667 13.8 23.4333 12.9 21.5 11.7C19.9 10.7 18.6 9.96667 17.6 9.5C16.6 8.96666 15.4667 8.7 14.2 8.7C12.4667 8.7 10.9667 9.3 9.7 10.5C8.43333 11.6333 7.66667 13.2 7.4 15.2H0.7Z" fill="white"/>
</svg>
