<svg width="46" height="16" viewBox="0 0 46 16" fill="none" xmlns="http://www.w3.org/2000/svg">
<path d="M0.7 0.800001C2.43333 10.5333 7.13333 15.4 14.8 15.4C16.6 15.4 18.2 15.0667 19.6 14.4C21.0667 13.8 22.7 12.9 24.5 11.7C26.1 10.7 27.4 9.96667 28.4 9.5C29.4667 9.03333 30.5667 8.8 31.7 8.8C33.4333 8.8 34.9 9.36667 36.1 10.5C37.3667 11.7 38.1333 13.3 38.4 15.3H45.2C43.5333 5.56667 38.8 0.700001 31 0.700001C29.2667 0.700001 27.7333 1 26.4 1.6C25.0667 2.2 23.4333 3.1 21.5 4.3C19.9 5.3 18.6 6.03333 17.6 6.5C16.6 7.03334 15.4667 7.3 14.2 7.3C12.4667 7.3 10.9667 6.7 9.7 5.5C8.43333 4.36667 7.66667 2.8 7.4 0.800001H0.7Z" fill="white"/>
</svg>
