<svg width="224" height="199" viewBox="0 0 224 199" fill="none" xmlns="http://www.w3.org/2000/svg">
<g clipPath="url(#clip0_994_14415)">
<path opacity="0.3" fill-rule="evenodd" clip-rule="evenodd" d="M70.6081 154.936C64.7729 154.936 59.1768 157.258 55.0507 161.391C50.9246 165.525 48.6066 171.131 48.6066 176.977C48.6066 182.823 50.9246 188.429 55.0507 192.563C59.1768 196.696 64.7729 199.018 70.6081 199.018C76.4433 199.018 82.0395 196.696 86.1656 192.563C90.2916 188.429 92.6097 182.823 92.6097 176.977C92.6097 171.131 90.2916 165.525 86.1656 161.391C82.0395 157.258 76.4433 154.936 70.6081 154.936ZM187.428 154.936C181.593 154.936 175.997 157.258 171.871 161.391C167.745 165.525 165.427 171.131 165.427 176.977C165.427 182.823 167.745 188.429 171.871 192.563C175.997 196.696 181.593 199.018 187.428 199.018C193.264 199.018 198.86 196.695 202.985 192.561C207.111 188.428 209.429 182.821 209.428 176.975C209.428 171.13 207.109 165.523 202.983 161.39C198.856 157.257 193.26 154.935 187.425 154.936H187.428ZM222.006 32.6125C221.159 31.5544 220.085 30.7007 218.864 30.1147C217.643 29.5286 216.306 29.2253 214.952 29.227H49.1822L40.563 5.88448C39.9234 4.15219 38.7697 2.65765 37.257 1.60181C35.7443 0.545966 33.9451 -0.0205249 32.1015 -0.0214844H9.0232C6.65106 0.0114543 4.38724 0.978601 2.72138 2.67076C1.05553 4.36293 0.121582 6.64408 0.121582 9.02074C0.121582 11.3974 1.05553 13.6785 2.72138 15.3707C4.38724 17.0628 6.65106 18.03 9.0232 18.063H25.8127L68.7511 134.24C69.3926 135.97 70.5473 137.461 72.06 138.514C73.5727 139.566 75.3709 140.129 77.2126 140.127C77.5715 140.127 77.9356 140.105 78.2945 140.08L198.664 125.609C200.524 125.386 202.269 124.59 203.658 123.331C205.048 122.072 206.012 120.413 206.42 118.581L223.792 40.226C224.081 38.9039 224.07 37.5337 223.761 36.2162C223.452 34.8987 222.852 33.6673 222.006 32.6125ZM197.7 74.4389H161.635V47.3114H203.724L197.7 74.4389ZM116.508 74.4389V47.3114H152.617V74.4389H116.508ZM152.617 83.4803V112.928L116.508 117.261V83.4681H152.617V83.4803ZM107.481 47.3114V74.4389H65.8885L55.8647 47.3114H107.481ZM69.2332 83.4803H107.481V118.367L83.2067 121.287L69.2332 83.4803ZM161.65 111.845V83.4803H195.71L190.185 108.407L161.65 111.845Z" fill="#00FF99"/>
</g>
<defs>
<clipPath id="clip0_994_14415">
<rect width="224" height="199" fill="white"/>
</clipPath>
</defs>
</svg>
