<svg width="50" height="50" viewBox="0 0 50 50" fill="none" xmlns="http://www.w3.org/2000/svg">
<path d="M4.1665 4.16675H7.79152C10.0415 4.16675 11.8123 6.10425 11.6248 8.33342L9.89567 29.0834C9.604 32.4792 12.2915 35.3959 15.7082 35.3959H37.8957C40.8957 35.3959 43.5207 32.9376 43.7498 29.9584L44.8748 14.3334C45.1248 10.8751 42.4998 8.06257 39.0207 8.06257H12.1249" stroke="white" stroke-width="3" stroke-miterlimit="10" stroke-linecap="round" stroke-linejoin="round"/>
<path d="M33.8542 45.8333C35.2924 45.8333 36.4583 44.6674 36.4583 43.2292C36.4583 41.7909 35.2924 40.625 33.8542 40.625C32.4159 40.625 31.25 41.7909 31.25 43.2292C31.25 44.6674 32.4159 45.8333 33.8542 45.8333Z" stroke="white" stroke-width="3" stroke-miterlimit="10" stroke-linecap="round" stroke-linejoin="round"/>
<path d="M17.1877 45.8333C18.6259 45.8333 19.7918 44.6674 19.7918 43.2292C19.7918 41.7909 18.6259 40.625 17.1877 40.625C15.7494 40.625 14.5835 41.7909 14.5835 43.2292C14.5835 44.6674 15.7494 45.8333 17.1877 45.8333Z" stroke="white" stroke-width="3" stroke-miterlimit="10" stroke-linecap="round" stroke-linejoin="round"/>
<path d="M18.75 16.6667H43.75" stroke="white" stroke-width="3" stroke-miterlimit="10" stroke-linecap="round" stroke-linejoin="round"/>
</svg>
