<svg width="43" height="52" viewBox="0 0 43 52" fill="none" xmlns="http://www.w3.org/2000/svg">
<circle cx="21.5" cy="21.5" r="20.5" stroke="#F3F3F3" stroke-width="2"/>
<path d="M27 19C27 22.3848 24.4691 25 21.5 25C18.5309 25 16 22.3848 16 19C16 15.6152 18.5309 13 21.5 13C24.4691 13 27 15.6152 27 19Z" stroke="#F3F3F3" stroke-width="2"/>
<mask id="path-3-inside-1_3_9" fill="white">
<path d="M34.9767 37.708C34.7735 34.2498 33.2487 31.0021 30.7178 28.6368C28.1868 26.2715 24.8435 24.9696 21.3795 25.0005C17.9155 25.0315 14.5959 26.3928 12.1076 28.8029C9.61935 31.213 8.15274 34.4874 8.01126 37.9487L9.23543 37.9987C9.36406 34.8516 10.6976 31.8743 12.96 29.683C15.2225 27.4916 18.2408 26.2538 21.3904 26.2257C24.5401 26.1976 27.58 27.3813 29.8812 29.5319C32.1824 31.6825 33.5689 34.6355 33.7537 37.7798L34.9767 37.708Z"/>
</mask>
<path d="M34.9767 37.708C34.7735 34.2498 33.2487 31.0021 30.7178 28.6368C28.1868 26.2715 24.8435 24.9696 21.3795 25.0005C17.9155 25.0315 14.5959 26.3928 12.1076 28.8029C9.61935 31.213 8.15274 34.4874 8.01126 37.9487L9.23543 37.9987C9.36406 34.8516 10.6976 31.8743 12.96 29.683C15.2225 27.4916 18.2408 26.2538 21.3904 26.2257C24.5401 26.1976 27.58 27.3813 29.8812 29.5319C32.1824 31.6825 33.5689 34.6355 33.7537 37.7798L34.9767 37.708Z" fill="#D9D9D9" stroke="#F3F3F3" stroke-width="4" mask="url(#path-3-inside-1_3_9)"/>
</svg>
