<svg width="44" height="42" viewBox="0 0 44 42" fill="none" xmlns="http://www.w3.org/2000/svg">
<path d="M22.0001 41.1459C21.7469 41.1528 21.496 41.0955 21.2709 40.9792C20.6251 40.6251 5.1876 32.4376 1.95843 21.3959C0.104267 15.1459 0.729266 9.04174 3.6251 5.16674C4.6835 3.76826 6.06385 2.64594 7.64886 1.89515C9.23388 1.14435 10.9767 0.787268 12.7293 0.854237C14.6106 0.76209 16.4795 1.20425 18.1201 2.1296C19.7606 3.05495 21.1058 4.42571 22.0001 6.0834C22.8944 4.42571 24.2396 3.05495 25.8801 2.1296C27.5207 1.20425 29.3897 0.76209 31.2709 0.854237C33.0235 0.787268 34.7663 1.14435 36.3513 1.89515C37.9364 2.64594 39.3167 3.76826 40.3751 5.16674C43.2709 9.04174 43.8959 15.1042 42.0418 21.3959C38.8126 32.4376 23.2918 40.6251 22.7293 40.9792C22.5042 41.0955 22.2533 41.1528 22.0001 41.1459ZM12.7293 3.97924C11.4621 3.91167 10.1976 4.15546 9.04639 4.68932C7.89515 5.22317 6.89218 6.03083 6.1251 7.04174C3.8126 10.1251 3.3751 15.1667 4.95843 20.5209C7.45843 29.0417 18.9793 36.0834 22.0001 37.8126C25.0209 36.0834 36.5834 29.0209 39.0418 20.5209C40.6251 15.1667 40.1876 10.1042 37.8751 7.04174C37.108 6.03083 36.105 5.22317 34.9538 4.68932C33.8026 4.15546 32.5381 3.91167 31.2709 3.97924C23.9584 3.97924 23.5834 11.3334 23.5626 11.6459C23.5626 12.0603 23.398 12.4577 23.105 12.7508C22.8119 13.0438 22.4145 13.2084 22.0001 13.2084C21.5857 13.2084 21.1883 13.0438 20.8952 12.7508C20.6022 12.4577 20.4376 12.0603 20.4376 11.6459C20.3959 10.8751 19.9168 3.97924 12.7293 3.97924Z" fill="white"/>
</svg>
